<?xml version="1.0" encoding="UTF-8"?>
<svg id="_Слой_2" data-name="Слой 2" xmlns="http://www.w3.org/2000/svg" viewBox="0 0 493.58 165.31">
  <defs>
    <style>
      .cls-1 {
        fill: #575756;
      }

      .cls-2 {
        fill: #1d71b8;
      }
    </style>
  </defs>
  <g id="_Слой_1-2" data-name="Слой 1">
    <g>
      <path class="cls-1" d="M261.73,123.56c.22-26.17-40.64-38.42-41.75-58.36,4.78-11.76,30.07-8.04,41.7-1.58,0,0,0,0,0,0-1.45-15.49-1.73-18.64-2.24-30.84-.06-.02-.13-.04-.19-.07-.01-.29-.02-.59-.04-.89-19.79-3.8-40.88-7.42-59.88,2.39-16.85,9.16-22.5,32.15-12.5,48.15,8.72,14.11,25.83,24.88,35.3,36.94h0c8.64,19.61-15.42,17.94-32.9,17.09-5.75-.28-12.11-10.92-14.58-15.95-10.17-20.71-36.54-76.15-40.77-82.16,0,0,0,0,0,0-17.28.24-24.21.22-40.73,0-1.46,32.64-4.52,89.97-5.65,123.06,0,0,0,0,0,0,15.51-.21,16.2-.24,30.61,0,.43,0,.79-.33.8-.76.27-18.66,1.53-54.86,2.44-74.93.04-.78,1.08-.98,1.41-.27,10.08,21.78,21.93,42.3,32.98,63.94,3.76,7.35,8.56,13.91,25.37,14.44,31.94.71,82.41,7.21,80.63-40.2Z"/>
      <path class="cls-2" d="M2.61,159.07c-.76-13.59-1.63-24.47-2.61-32.64,11.96,7.71,56.65,17.23,45.32-7.61-9.2-11.43-27.93-24.77-35.16-36.61C.16,66.22,5.81,43.23,22.66,34.07c18.9-9.71,38.66-6.24,59.88-2.39.53,12.66.8,15.66,2.27,31.4-8.81-3.96-17.68-6.19-26.06-6.32-10.88-.85-21.24,8.25-12.46,17.66,8.76,10.49,24.62,20.03,32.77,32.5,11.12,14.74,6.24,37.13-8.28,47.62-21.54,13.9-41.46,9.2-68.16,4.55Z"/>
      <path class="cls-2" d="M175.27,109.87l.19-8.33,3.68-74.66,1.96-26.87c-8.82.12-14.15.18-16,.18-4.03,0-9.39-.06-16.08-.18,0,6.98-.32,19.58-.96,37.8-.19,5.48-.39,10.56-.58,15.3l27.79,56.76Z"/>
    </g>
    <g>
      <path class="cls-2" d="M272.2,63.08c-1.34-1.49-2.01-3.62-2.01-6.39v-1.96h5.1v2.35c0,2.22.93,3.33,2.79,3.33.92,0,1.61-.27,2.08-.81.47-.54.71-1.41.71-2.62,0-1.44-.33-2.7-.98-3.8-.65-1.09-1.86-2.41-3.63-3.94-2.22-1.96-3.77-3.73-4.66-5.32-.88-1.58-1.32-3.37-1.32-5.37,0-2.71.69-4.81,2.06-6.3,1.37-1.49,3.36-2.23,5.98-2.23s4.53.74,5.86,2.23c1.32,1.49,1.98,3.62,1.98,6.39v1.42h-5.1v-1.76c0-1.18-.23-2.03-.69-2.57-.46-.54-1.13-.81-2.01-.81-1.8,0-2.7,1.09-2.7,3.28,0,1.24.33,2.4,1,3.48s1.89,2.38,3.65,3.92c2.25,1.96,3.8,3.74,4.65,5.34.85,1.6,1.27,3.48,1.27,5.63,0,2.81-.69,4.97-2.08,6.47s-3.41,2.25-6.05,2.25-4.59-.74-5.93-2.23Z"/>
      <path class="cls-2" d="M293.96,35.42h-5.63v-4.9h16.66v4.9h-5.64v29.4h-5.39v-29.4Z"/>
      <path class="cls-2" d="M309.88,30.52h7.3l5.59,34.3h-5.39l-.98-6.81v.1h-6.12l-.98,6.71h-5l5.59-34.3ZM315.76,53.45l-2.4-16.95h-.1l-2.35,16.95h4.85Z"/>
      <path class="cls-2" d="M325.76,30.52h6.76l5.24,20.53h.1v-20.53h4.8v34.3h-5.54l-6.47-25.04h-.1v25.04h-4.8V30.52Z"/>
      <path class="cls-2" d="M347.07,30.52h8.23c2.68,0,4.69.72,6.03,2.16,1.34,1.44,2.01,3.54,2.01,6.32v17.35c0,2.78-.67,4.88-2.01,6.32-1.34,1.44-3.35,2.16-6.03,2.16h-8.23V30.52ZM355.2,59.92c.88,0,1.56-.26,2.03-.78s.71-1.37.71-2.55v-17.84c0-1.18-.24-2.02-.71-2.55-.47-.52-1.15-.78-2.03-.78h-2.74v24.5h2.74Z"/>
      <path class="cls-2" d="M371.42,30.52h7.3l5.59,34.3h-5.39l-.98-6.81v.1h-6.12l-.98,6.71h-5l5.59-34.3ZM377.3,53.45l-2.4-16.95h-.1l-2.35,16.95h4.85Z"/>
      <path class="cls-2" d="M387.3,30.52h7.99c2.78,0,4.8.65,6.08,1.94,1.27,1.29,1.91,3.28,1.91,5.95v2.11c0,3.56-1.18,5.81-3.53,6.76v.1c1.31.39,2.23,1.19,2.77,2.4.54,1.21.81,2.83.81,4.85v6.03c0,.98.03,1.77.1,2.38s.23,1.2.49,1.79h-5.49c-.2-.55-.33-1.08-.39-1.57-.07-.49-.1-1.37-.1-2.65v-6.27c0-1.57-.25-2.66-.76-3.28-.51-.62-1.38-.93-2.62-.93h-1.86v14.7h-5.39V30.52ZM394.65,45.22c1.08,0,1.89-.28,2.43-.83s.81-1.49.81-2.79v-2.65c0-1.24-.22-2.14-.66-2.7-.44-.55-1.14-.83-2.08-.83h-2.45v9.8h1.96Z"/>
      <path class="cls-2" d="M407.44,30.52h8.23c2.68,0,4.69.72,6.03,2.16,1.34,1.44,2.01,3.54,2.01,6.32v17.35c0,2.78-.67,4.88-2.01,6.32-1.34,1.44-3.35,2.16-6.03,2.16h-8.23V30.52ZM415.57,59.92c.88,0,1.56-.26,2.03-.78.47-.52.71-1.37.71-2.55v-17.84c0-1.18-.24-2.02-.71-2.55-.47-.52-1.15-.78-2.03-.78h-2.74v24.5h2.74Z"/>
      <path class="cls-2" d="M440.12,30.52h7.3l5.59,34.3h-5.39l-.98-6.81v.1h-6.12l-.98,6.71h-5l5.59-34.3ZM446,53.45l-2.4-16.95h-.1l-2.35,16.95h4.85Z"/>
      <path class="cls-2" d="M455.99,30.52h6.76l5.24,20.53h.1v-20.53h4.8v34.3h-5.54l-6.47-25.04h-.1v25.04h-4.8V30.52Z"/>
      <path class="cls-2" d="M477.31,30.52h8.23c2.68,0,4.69.72,6.03,2.16,1.34,1.44,2.01,3.54,2.01,6.32v17.35c0,2.78-.67,4.88-2.01,6.32-1.34,1.44-3.35,2.16-6.03,2.16h-8.23V30.52ZM485.44,59.92c.88,0,1.56-.26,2.03-.78.47-.52.71-1.37.71-2.55v-17.84c0-1.18-.24-2.02-.71-2.55-.47-.52-1.15-.78-2.03-.78h-2.74v24.5h2.74Z"/>
      <path class="cls-2" d="M272.2,113.08c-1.34-1.49-2.01-3.62-2.01-6.39v-1.96h5.1v2.35c0,2.22.93,3.33,2.79,3.33.92,0,1.61-.27,2.08-.81.47-.54.71-1.41.71-2.62,0-1.44-.33-2.7-.98-3.8-.65-1.09-1.86-2.41-3.63-3.94-2.22-1.96-3.77-3.73-4.66-5.32-.88-1.58-1.32-3.37-1.32-5.37,0-2.71.69-4.81,2.06-6.3,1.37-1.49,3.36-2.23,5.98-2.23s4.53.74,5.86,2.23c1.32,1.49,1.98,3.62,1.98,6.39v1.42h-5.1v-1.76c0-1.18-.23-2.03-.69-2.57-.46-.54-1.13-.81-2.01-.81-1.8,0-2.7,1.09-2.7,3.28,0,1.24.33,2.4,1,3.48s1.89,2.38,3.65,3.92c2.25,1.96,3.8,3.74,4.65,5.34.85,1.6,1.27,3.48,1.27,5.63,0,2.81-.69,4.97-2.08,6.47s-3.41,2.25-6.05,2.25-4.59-.74-5.93-2.23Z"/>
      <path class="cls-2" d="M289.74,80.52h14.7v4.9h-9.31v9.07h7.4v4.9h-7.4v10.53h9.31v4.9h-14.7v-34.3Z"/>
      <path class="cls-2" d="M307.92,80.52h6.76l5.24,20.53h.1v-20.53h4.8v34.3h-5.54l-6.47-25.04h-.1v25.04h-4.8v-34.3Z"/>
      <path class="cls-2" d="M330.31,113.08c-1.34-1.49-2.01-3.62-2.01-6.39v-1.96h5.1v2.35c0,2.22.93,3.33,2.79,3.33.91,0,1.61-.27,2.08-.81s.71-1.41.71-2.62c0-1.44-.33-2.7-.98-3.8-.65-1.09-1.86-2.41-3.63-3.94-2.22-1.96-3.77-3.73-4.65-5.32-.88-1.58-1.32-3.37-1.32-5.37,0-2.71.69-4.81,2.06-6.3,1.37-1.49,3.36-2.23,5.98-2.23s4.53.74,5.86,2.23c1.32,1.49,1.98,3.62,1.98,6.39v1.42h-5.1v-1.76c0-1.18-.23-2.03-.69-2.57-.46-.54-1.13-.81-2.01-.81-1.8,0-2.7,1.09-2.7,3.28,0,1.24.33,2.4,1,3.48.67,1.08,1.89,2.38,3.65,3.92,2.25,1.96,3.81,3.74,4.66,5.34.85,1.6,1.27,3.48,1.27,5.63,0,2.81-.69,4.97-2.08,6.47-1.39,1.5-3.41,2.25-6.05,2.25s-4.59-.74-5.93-2.23Z"/>
      <path class="cls-2" d="M347.85,80.52h14.7v4.9h-9.31v9.07h7.4v4.9h-7.4v10.53h9.31v4.9h-14.7v-34.3Z"/>
      <path class="cls-2" d="M370.25,85.42h-5.64v-4.9h16.66v4.9h-5.63v29.4h-5.39v-29.4Z"/>
      <path class="cls-2" d="M384.26,80.52h5.39v34.3h-5.39v-34.3Z"/>
      <path class="cls-2" d="M392.64,80.52h5.44l3.53,26.61h.1l3.53-26.61h4.95l-5.19,34.3h-7.15l-5.19-34.3Z"/>
      <path class="cls-2" d="M413.17,80.52h14.7v4.9h-9.31v9.07h7.4v4.9h-7.4v10.53h9.31v4.9h-14.7v-34.3Z"/>
      <path class="cls-2" d="M271.12,130.52h7.99c2.78,0,4.8.65,6.08,1.94,1.27,1.29,1.91,3.28,1.91,5.95v2.11c0,3.56-1.18,5.81-3.53,6.76v.1c1.31.39,2.23,1.19,2.77,2.4.54,1.21.81,2.83.81,4.85v6.03c0,.98.03,1.77.1,2.38s.23,1.2.49,1.79h-5.49c-.2-.55-.33-1.08-.39-1.57-.07-.49-.1-1.37-.1-2.65v-6.27c0-1.57-.25-2.66-.76-3.28-.51-.62-1.38-.93-2.62-.93h-1.86v14.7h-5.39v-34.3ZM278.47,145.22c1.08,0,1.89-.28,2.43-.83s.81-1.49.81-2.79v-2.65c0-1.24-.22-2.14-.66-2.7-.44-.55-1.14-.83-2.08-.83h-2.45v9.8h1.96Z"/>
      <path class="cls-2" d="M295.43,130.52h7.3l5.59,34.3h-5.39l-.98-6.81v.1h-6.12l-.98,6.71h-5l5.59-34.3ZM301.31,153.45l-2.4-16.95h-.1l-2.35,16.95h4.85Z"/>
      <path class="cls-2" d="M313.26,135.42h-5.64v-4.9h16.66v4.9h-5.63v29.4h-5.39v-29.4Z"/>
      <path class="cls-2" d="M327.28,130.52h5.39v34.3h-5.39v-34.3Z"/>
      <path class="cls-2" d="M337.07,130.52h6.76l5.24,20.53h.1v-20.53h4.8v34.3h-5.54l-6.47-25.04h-.1v25.04h-4.8v-34.3Z"/>
      <path class="cls-2" d="M360.06,163.08c-1.37-1.49-2.06-3.62-2.06-6.39v-18.03c0-2.78.69-4.91,2.06-6.39,1.37-1.49,3.36-2.23,5.98-2.23s4.61.74,5.98,2.23c1.37,1.49,2.06,3.62,2.06,6.39v2.94h-5.1v-3.28c0-2.25-.93-3.38-2.79-3.38s-2.79,1.13-2.79,3.38v18.77c0,2.22.93,3.33,2.79,3.33s2.79-1.11,2.79-3.33v-6.71h-2.69v-4.9h7.79v11.22c0,2.78-.69,4.91-2.06,6.39s-3.36,2.23-5.98,2.23-4.61-.74-5.98-2.23Z"/>
      <path class="cls-2" d="M379.02,163.08c-1.34-1.49-2.01-3.62-2.01-6.39v-1.96h5.1v2.35c0,2.22.93,3.33,2.79,3.33.91,0,1.61-.27,2.08-.81s.71-1.41.71-2.62c0-1.44-.33-2.7-.98-3.8-.65-1.09-1.86-2.41-3.63-3.94-2.22-1.96-3.77-3.73-4.65-5.32-.88-1.58-1.32-3.37-1.32-5.37,0-2.71.69-4.81,2.06-6.3,1.37-1.49,3.36-2.23,5.98-2.23s4.53.74,5.86,2.23c1.32,1.49,1.98,3.62,1.98,6.39v1.42h-5.1v-1.76c0-1.18-.23-2.03-.69-2.57-.46-.54-1.13-.81-2.01-.81-1.8,0-2.7,1.09-2.7,3.28,0,1.24.33,2.4,1,3.48.67,1.08,1.89,2.38,3.65,3.92,2.25,1.96,3.81,3.74,4.66,5.34.85,1.6,1.27,3.48,1.27,5.63,0,2.81-.69,4.97-2.08,6.47-1.39,1.5-3.41,2.25-6.05,2.25s-4.59-.74-5.93-2.23Z"/>
    </g>
  </g>
</svg>